HIERARCHY
ROOT hip
{
	OFFSET 0.000000 0.000000 0.000000 
	CHANNELS 6 Xposition Yposition Zposition Xrotation Zrotation Yrotation
	JOINT abdomen
	{
		OFFSET 0.000000 3.402643 0.000000 
		CHANNELS 3 Xrotation Zrotation Yrotation
		JOINT chest
		{
			OFFSET 0.000000 8.438565 -0.680529 
			CHANNELS 3 Xrotation Zrotation Yrotation
			JOINT neck
			{
				OFFSET 0.000000 10.207942 -0.272212 
				CHANNELS 3 Xrotation Zrotation Yrotation
				JOINT head
				{
					OFFSET 0.000000 3.130431 0.000000 
					CHANNELS 3 Xrotation Zrotation Yrotation
					End Site
					{
						OFFSET 0.000000 3.130435 0.000000 
					}
				}
			}
			JOINT lCollar
			{
				OFFSET 3.470700 6.669187 -0.816635 
				CHANNELS 3 Yrotation Zrotation Xrotation
				JOINT lShldr
				{
					OFFSET 3.198488 0.000000 0.000000 
					CHANNELS 3 Zrotation Yrotation Xrotation
					JOINT lForeArm
					{
						OFFSET 10.139888 0.000000 0.000000 
						CHANNELS 3 Yrotation Zrotation Xrotation
						JOINT lHand
						{
							OFFSET 8.370511 0.000000 0.000000 
							CHANNELS 3 Zrotation Yrotation Xrotation
							End Site
							{
								OFFSET 4.083176 0.000000 0.000000 
							}
						}
					}
				}
			}
			JOINT rCollar
			{
				OFFSET -3.470700 6.669187 -0.816635 
				CHANNELS 3 Yrotation Zrotation Xrotation
				JOINT rShldr
				{
					OFFSET -3.198488 0.000000 0.000000 
					CHANNELS 3 Zrotation Yrotation Xrotation
					JOINT rForeArm
					{
						OFFSET -10.139888 0.000000 0.000000 
						CHANNELS 3 Yrotation Zrotation Xrotation
						JOINT rHand
						{
							OFFSET -8.370511 0.000000 0.000000 
							CHANNELS 3 Zrotation Yrotation Xrotation
							End Site
							{
								OFFSET -4.083176 0.000000 0.000000 
							}
						}
					}
				}
			}
		}
	}
	JOINT lThigh
	{
		OFFSET 5.308129 -1.633274 1.361059 
		CHANNELS 3 Xrotation Zrotation Yrotation
		JOINT lShin
		{
			OFFSET -2.041588 -20.007561 0.000000 
			CHANNELS 3 Xrotation Zrotation Yrotation
			JOINT lFoot
			{
				OFFSET 0.000000 -19.190928 -1.224953 
				CHANNELS 3 Xrotation Yrotation Zrotation
				End Site
				{
					OFFSET 0.000000 -2.449906 4.627600 
				}
			}
		}
	}
	JOINT rThigh
	{
		OFFSET -5.308129 -1.633274 1.361059 
		CHANNELS 3 Xrotation Zrotation Yrotation
		JOINT rShin
		{
			OFFSET 2.041588 -20.007561 0.000000 
			CHANNELS 3 Xrotation Zrotation Yrotation
			JOINT rFoot
			{
				OFFSET 0.000000 -19.190928 -1.224953 
				CHANNELS 3 Xrotation Yrotation Zrotation
				End Site
				{
					OFFSET 0.000000 -2.449906 4.627600 
				}
			}
		}
	}
}
MOTION
Frames: 13
Frame Time: 0.016667
-33.672146 39.619614 -69.072456 -22.682100 1.315550 170.895996 -15.326900 4.815030 1.928550 9.651440 3.135810 1.476620 26.108101 -23.522301 22.416599 -8.603520 0.000000 0.000000 2.000000 -2.000000 0.000000 -67.019897 -20.705000 149.123001 64.609901 -0.273471 0.123563 5.137900 -2.136250 -126.514999 -2.000000 2.000000 0.000000 70.916603 8.082290 146.998993 -72.412598 0.256160 0.130338 6.557570 1.145940 -125.212997 -61.207325 1.799012 0.315086 50.529861 0.767225 4.006406 -8.219507 -5.526785 -2.875492 -39.076908 -4.125669 -0.979263 83.328079 0.148569 -4.411683 -5.386377 3.888524 0.029226 
-33.804596 39.638172 -68.938774 -22.885201 1.088650 170.205002 -15.390800 4.759090 2.110560 9.671300 3.107240 1.551560 26.868601 -23.863899 22.270700 -8.603520 0.000000 0.000000 2.000000 -2.000000 0.000000 -66.931503 -20.608000 148.800995 64.375504 -0.273976 0.123322 5.160210 -2.057860 -127.468002 -2.000000 2.000000 0.000000 70.887604 8.306490 147.203995 -72.510300 0.255938 0.130408 6.561240 1.160790 -125.338997 -61.542599 1.903506 0.333216 50.373978 0.781897 4.028772 -7.812284 -5.164049 -2.780513 -37.897903 -4.113962 -2.640249 83.149185 0.082532 -4.394121 -4.065728 3.153279 -0.230364 
-33.949738 39.629082 -68.860817 -23.089899 1.033100 169.412994 -15.366800 4.694410 2.271560 9.731150 2.992750 1.625540 26.879299 -24.299200 22.192200 -8.603520 0.000000 0.000000 2.000000 -2.000000 0.000000 -66.725800 -20.305901 148.477997 64.102097 -0.274563 0.123039 5.175850 -2.029370 -127.762001 -2.000000 2.000000 0.000000 70.878304 8.315510 147.574997 -72.969299 0.254892 0.130733 6.549940 1.212290 -125.748001 -61.883549 2.116120 0.057779 50.471661 0.772948 4.020684 -7.658171 -4.609317 -2.646816 -36.211105 -3.843681 -3.647278 81.938744 -0.099315 -4.350126 -2.538222 3.547616 -0.259708 
-34.094875 39.620132 -68.782631 -23.304300 0.968660 168.626007 -15.342600 4.616840 2.425090 9.781260 2.868520 1.700610 26.891100 -24.740000 22.092300 -8.603520 0.000000 0.000000 2.000000 -2.000000 0.000000 -66.519997 -20.003799 148.154999 63.828701 -0.275150 0.122752 5.183450 -2.006330 -128.057007 -2.000000 2.000000 0.000000 70.859299 8.324520 147.947006 -73.418503 0.253866 0.131043 6.539850 1.258790 -126.156998 -62.233322 2.327886 -0.208231 50.598518 0.769654 4.014628 -7.537266 -4.039778 -2.529921 -34.588081 -3.567381 -4.614130 80.835800 -0.263028 -4.286304 -1.075690 3.907813 -0.309580 
-34.255970 39.594822 -68.777573 -23.529600 1.047600 167.923004 -15.144800 4.580540 2.498300 10.272000 2.661680 1.773140 26.633200 -24.938200 22.071899 -8.603520 0.000000 0.000000 2.000000 -2.000000 0.000000 -66.558403 -19.916901 147.656998 63.643101 -0.275547 0.122556 5.191750 -1.997670 -128.134995 -2.000000 2.000000 0.000000 70.752197 8.597530 148.162994 -73.652901 0.253329 0.131202 6.528950 1.306210 -126.575996 -62.549377 2.552754 -0.561434 51.048645 0.759245 4.021180 -7.854111 -3.582925 -2.462956 -32.970371 -3.279608 -5.537858 78.880333 -0.508362 -4.233882 -0.308741 4.794734 -0.267646 
-34.416950 39.569633 -68.772522 -23.754900 1.135190 167.214996 -14.946900 4.544090 2.570350 10.762500 2.444360 1.844190 26.351000 -25.146299 22.070499 -8.603520 0.000000 0.000000 2.000000 -2.000000 0.000000 -66.596703 -19.820299 147.158997 63.447800 -0.275964 0.122349 5.199680 -1.988540 -128.203995 -2.000000 2.000000 0.000000 70.654900 8.870510 148.389008 -73.877502 0.252815 0.131351 6.525270 1.360090 -126.994003 -62.914040 2.775515 -0.911481 51.645851 0.749197 4.042032 -8.241816 -3.137320 -2.432534 -31.367599 -2.973814 -6.430499 76.916298 -0.719088 -4.176082 0.450360 5.701119 -0.292456 
-34.527378 39.475269 -68.578064 -23.853300 1.214720 166.612000 -14.887300 4.620400 2.664260 10.938800 2.397500 1.908660 26.507601 -24.813101 22.069799 -8.603520 0.000000 0.000000 2.000000 -2.000000 0.000000 -66.430199 -20.006599 146.759003 63.242699 -0.276401 0.122129 5.206920 -1.968270 -128.440002 -2.000000 2.000000 0.000000 70.606201 9.212270 148.408997 -74.014198 0.252501 0.131442 6.528600 1.352400 -126.935997 -63.430676 3.094949 -1.163958 52.038292 0.724317 4.063432 -8.259991 -2.790274 -2.358046 -30.115068 -2.496632 -6.952209 75.304955 -0.905321 -4.117772 -0.654166 6.798967 -0.054667 
-34.637806 39.380898 -68.383598 -23.941999 1.294220 166.007996 -14.817900 4.693460 2.749670 11.124800 2.350640 1.963470 26.687000 -24.489901 22.060301 -8.603520 0.000000 0.000000 2.000000 -2.000000 0.000000 -66.263802 -20.193001 146.348999 63.027901 -0.276858 0.121898 5.206340 -1.953780 -128.675003 -2.000000 2.000000 0.000000 70.567299 9.544250 148.429001 -74.141197 0.252210 0.131525 6.521910 1.345020 -126.887001 -63.925426 3.404639 -1.387241 52.390755 0.720679 4.076604 -8.267897 -2.437805 -2.280644 -28.824030 -1.991116 -7.456950 73.566757 -1.097804 -4.069313 -1.673285 7.880786 0.184807 
-34.741722 39.305866 -68.188354 -23.958700 0.972756 165.408005 -14.757900 4.637700 2.767950 11.349100 2.419630 1.961770 27.307100 -24.212999 21.983000 -8.603520 0.000000 0.000000 2.000000 -2.000000 0.000000 -66.165604 -20.193701 145.968002 63.057201 -0.276796 0.121930 5.213440 -1.943570 -128.723999 -2.000000 2.000000 0.000000 70.538300 10.032400 148.507996 -74.150902 0.252187 0.131531 6.528950 1.329080 -126.750999 -64.310516 3.534435 -1.171031 52.576508 0.720803 4.079182 -8.270706 -1.991100 -2.191347 -27.919548 -1.910133 -7.588131 72.239578 -1.257923 -4.009260 -2.218637 9.544708 0.463624 
-34.845631 39.230835 -67.993118 -23.976299 0.651384 164.817993 -14.697700 4.572460 2.788590 11.563800 2.478950 1.961700 27.934299 -23.958799 21.912800 -8.603520 0.000000 0.000000 2.000000 -2.000000 0.000000 -66.057602 -20.184700 145.597000 63.086498 -0.276734 0.121961 5.213260 -1.939880 -128.783005 -2.000000 2.000000 0.000000 70.509300 10.510800 148.578003 -74.160698 0.252165 0.131538 6.525930 1.313520 -126.624001 -64.696373 3.662942 -0.964247 52.753559 0.691351 4.086854 -8.263072 -1.575704 -2.127418 -27.007082 -1.832041 -7.688206 70.845451 -1.397955 -3.969417 -2.732159 11.227287 0.753638 
-34.959091 39.131008 -67.786072 -23.624201 0.554730 164.024994 -14.616400 4.580330 2.922440 11.564200 2.411430 2.040730 28.321600 -23.998600 21.563299 -8.603520 0.000000 0.000000 2.000000 -2.000000 0.000000 -66.067299 -20.057800 145.576996 63.311100 -0.276255 0.122203 5.213590 -1.940280 -128.792999 -2.000000 2.000000 0.000000 70.626503 10.373900 148.636002 -74.531799 0.251312 0.131777 6.526160 1.313210 -126.614998 -64.713669 3.974038 -0.860261 53.165768 0.675768 4.121274 -8.486513 -1.074015 -2.027131 -26.084743 -1.530403 -7.368846 69.851967 -1.521299 -3.917398 -3.813519 12.065860 1.102094 
-35.072666 39.031052 -67.579041 -23.262501 0.448588 163.253998 -14.544700 4.588020 3.054870 11.554800 2.353500 2.108060 28.698601 -24.056000 21.212500 -8.603520 0.000000 0.000000 2.000000 -2.000000 0.000000 -66.067200 -19.930901 145.567001 63.535702 -0.275776 0.122443 5.213590 -1.940280 -128.792999 -2.000000 2.000000 0.000000 70.743698 10.237100 148.694000 -74.912598 0.250436 0.132016 6.526160 1.313210 -126.614998 -64.759857 4.271856 -0.748098 53.596283 0.672033 4.130782 -8.682858 -0.530372 -1.926166 -25.172203 -1.227171 -7.016624 68.780563 -1.643515 -3.873738 -4.845267 12.934813 1.477344 
-35.185341 38.888260 -67.311111 -22.919901 0.017989 162.815002 -14.516200 4.532680 2.990640 11.563600 2.498250 2.056310 29.328600 -23.620701 20.950800 -8.603520 0.000000 0.000000 2.000000 -2.000000 0.000000 -66.067200 -19.921000 145.606003 63.506401 -0.275839 0.122411 5.206500 -1.957430 -128.617004 -2.000000 2.000000 0.000000 70.792503 10.149100 148.723007 -75.098198 0.250008 0.132131 6.532440 1.321140 -126.682999 -64.942940 4.146054 -0.451944 53.930149 0.639009 4.149864 -8.550810 -0.208127 -1.892333 -24.750462 -1.387224 -6.696721 68.143150 -1.678731 -3.851083 -6.069505 13.122849 1.793768 
